ply
format ascii 1.0
comment Created by Open3D
element vertex 100
property double x
property double y
property double z
end_header
33 32 37
61 55 21
55 55 0
82 69 98
30 70 74
39 57 70
73 44 40
43 16 35
14 33 36
52 10 45
77 74 90
77 90 17
62 50 32
82 55 89
2 89 71
0 84 43
80 68 1
37 36 30
27 35 13
38 91 76
25 19 51
77 34 63
38 0 34
90 15 58
96 59 13
25 17 43
63 1 66
97 22 5
27 54 7
36 27 4
7 1 40
36 18 30
61 45 82
11 18 42
49 83 8
36 12 65
33 61 28
79 21 22
56 97 1
58 43 45
87 86 36
57 81 94
38 14 48
65 32 60
47 28 73
97 21 49
31 38 85
26 4 34
89 10 42
64 66 72
85 18 31
31 85 84
98 45 73
81 13 82
63 64 53
86 54 84
57 4 85
68 35 33
99 15 82
95 96 12
99 66 55
83 76 30
17 75 46
13 11 42
88 82 39
14 87 51
93 88 31
16 5 58
34 70 91
34 29 50
23 6 7
66 66 66
63 69 87
78 15 98
7 0 94
77 13 39
93 63 11
31 31 39
53 35 79
46 23 45
96 46 71
18 96 22
4 32 38
18 82 99
9 29 13
0 45 42
73 33 66
94 97 17
75 69 24
34 63 85
25 45 13
21 26 91
21 55 7
86 69 76
42 46 42
80 38 18
10 41 23
36 75 81
55 28 60
33 23 73
