ply
format ascii 1.0
comment Created by Open3D
element vertex 100
property double x
property double y
property double z
end_header
84 39 59
88 80 90
29 27 87
6 84 84
79 68 95
18 81 13
2 63 22
96 5 68
81 52 86
69 20 16
5 63 81
4 68 76
56 85 47
97 82 97
93 76 94
12 54 80
11 50 9
79 50 64
82 19 64
57 55 36
78 22 73
0 25 92
62 26 75
87 67 57
67 10 84
22 2 87
65 78 17
18 12 39
47 19 48
44 11 30
10 31 3
35 9 13
54 28 51
57 31 94
91 67 67
75 53 9
18 52 50
95 20 46
63 86 60
53 19 68
29 78 56
65 71 88
46 49 35
15 90 15
41 43 24
65 3 93
13 87 42
4 2 7
34 42 84
30 62 27
6 99 33
32 48 32
4 7 36
13 89 79
63 81 99
92 37 32
9 80 86
12 72 59
98 26 64
14 54 31
22 62 20
78 65 49
42 40 26
68 76 18
71 60 82
36 74 25
25 75 61
9 13 99
77 59 78
51 31 97
99 48 12
85 47 67
91 65 93
74 99 40
77 78 67
47 39 58
59 62 36
14 22 78
74 53 47
22 53 50
76 45 22
81 35 4
23 78 29
94 96 1
18 41 62
22 21 91
66 57 35
94 53 96
46 94 17
86 34 33
24 70 37
41 20 54
95 28 57
41 43 78
57 40 53
27 66 14
54 80 63
75 78 28
8 91 36
73 63 36
