ply
format ascii 1.0
comment Created by Open3D
element vertex 50
property double x
property double y
property double z
end_header
0 0 20
5 0 20
10 0 20
15 0 20
20 0 20
0 10 20
5 10 20
10 10 20
15 10 20
20 10 20
0 20 20
5 20 20
10 20 20
15 20 20
20 20 20
0 30 20
5 30 20
10 30 20
15 30 20
20 30 20
0 40 20
5 40 20
10 40 20
15 40 20
20 40 20
0 0 0
5 0 0
10 0 0
15 0 0
20 0 0
0 10 0
5 10 0
10 10 0
15 10 0
20 10 0
0 20 0
5 20 0
10 20 0
15 20 0
20 20 0
0 30 0
5 30 0
10 30 0
15 30 0
20 30 0
0 40 0
5 40 0
10 40 0
15 40 0
20 40 0
